<svg xmlns="http://www.w3.org/2000/svg" viewBox="0 0 64 64" width="64" height="64">
	<rect x="2" y="2" width="60" height="60" rx="14" fill="#2e3b46" />
	<rect x="6" y="6" width="52" height="52" rx="11" fill="none" stroke="#f2c037" stroke-width="2.5" />
	<!-- diagonal road -->
	<path d="M32 10 L54 54 L40 54 Z" fill="#1b2730" />
	<!-- dashed center lane -->
	<rect x="35.5" y="44" width="4" height="8" rx="1.5" fill="#f2c037" />
	<rect x="36.8" y="33" width="3.2" height="6.5" rx="1.4" fill="#f2c037" />
	<rect x="37.8" y="24" width="2.6" height="5" rx="1.2" fill="#f2c037" />
	<!-- hex pavers -->
	<g fill="#cdd8e0">
		<polygon points="16,18 21,15 26,18 26,24 21,27 16,24" />
		<polygon points="16,30 21,27 26,30 26,36 21,39 16,36" />
		<polygon points="22,40 27,37 32,40 32,46 27,49 22,46" />
	</g>
</svg>
